HIERARCHY
ROOT SpineBase
{
  OFFSET 0.000000 0.000000 0.000000
  CHANNELS 6 Xposition Yposition Zposition Zrotation Xrotation Yrotation
  JOINT SpineMid
  {
    OFFSET 0.000000 30.973641 0.000000
    CHANNELS 3 Zrotation Xrotation Yrotation
    JOINT SpineShoulder
    {
      OFFSET -0.092627 22.961207 -0.759662
      CHANNELS 3 Zrotation Xrotation Yrotation
      JOINT Neck
      {
        OFFSET -0.071551 7.585118 -0.570747
        CHANNELS 3 Zrotation Xrotation Yrotation
        JOINT Head
        {
          OFFSET -5.808588 12.522547 2.032195
          CHANNELS 3 Zrotation Xrotation Yrotation
          End Site
          {
            OFFSET 0 0 0
          }
        }
      }
      JOINT ShoulderLeft
      {
        OFFSET -10.798897 -4.049147 13.176543
        CHANNELS 3 Zrotation Xrotation Yrotation
        JOINT ElbowLeft
        {
          OFFSET -4.184544 -21.448955 -14.634172
          CHANNELS 3 Zrotation Xrotation Yrotation
          JOINT WristLeft
          {
            OFFSET 3.879565 -24.368944 -2.799524
            CHANNELS 3 Zrotation Xrotation Yrotation
            JOINT HandLeft
            {
              OFFSET 0.116947 -5.999182 -0.233516
              CHANNELS 3 Zrotation Xrotation Yrotation
              JOINT HandTipLeft
              {
                OFFSET 3.711401 -8.531220 0.950684
                CHANNELS 3 Zrotation Xrotation Yrotation
                End Site
                {
                  OFFSET 0 0 0
                }
              }
              JOINT ThumbLeft
              {
                OFFSET 1.253771 -0.181148 -5.256972
                CHANNELS 3 Zrotation Xrotation Yrotation
                End Site
                {
                  OFFSET 0 0 0
                }
              }
            }
          }
        }
      }
      JOINT ShoulderRight
      {
        OFFSET 10.431711 -3.253686 -12.463574
        CHANNELS 3 Zrotation Xrotation Yrotation
        JOINT ElbowRight
        {
          OFFSET 5.078311 -22.318633 -6.357571
          CHANNELS 3 Zrotation Xrotation Yrotation
          JOINT WristRight
          {
            OFFSET -16.244677 -8.362440 3.690206
            CHANNELS 3 Zrotation Xrotation Yrotation
            JOINT HandRight
            {
              OFFSET -6.388943 0.349822 4.710666
              CHANNELS 3 Zrotation Xrotation Yrotation
              JOINT HandTipRight
              {
                OFFSET -8.491758 -0.477708 -0.658557
                CHANNELS 3 Zrotation Xrotation Yrotation
                End Site
                {
                  OFFSET 0 0 0
                }
              }
              JOINT ThumbRight
              {
                OFFSET 0.235929 6.912038 -0.038275
                CHANNELS 3 Zrotation Xrotation Yrotation
                End Site
                {
                  OFFSET 0 0 0
                }
              }
            }
          }
        }
      }
    }
  }
  JOINT HipLeft
  {
    OFFSET -5.374700 0.057726 1.262094
    CHANNELS 3 Zrotation Xrotation Yrotation
    JOINT KneeLeft
    {
      OFFSET 2.567293 -33.359862 10.661942
      CHANNELS 3 Zrotation Xrotation Yrotation
      JOINT AnkleLeft
      {
        OFFSET 15.836133 -36.134644 5.870017
        CHANNELS 3 Zrotation Xrotation Yrotation
        JOINT FootLeft
        {
          OFFSET -4.251766 -4.879512 -8.849652
          CHANNELS 3 Zrotation Xrotation Yrotation
          End Site
          {
            OFFSET 0 0 0
          }
        }
      }
    }
  }
  JOINT HipRight
  {
    OFFSET 4.594863 1.556881 -7.912673
    CHANNELS 3 Zrotation Xrotation Yrotation
    JOINT KneeRight
    {
      OFFSET 5.596450 -32.269135 -0.303287
      CHANNELS 3 Zrotation Xrotation Yrotation
      JOINT AnkleRight
      {
        OFFSET 9.718343 -34.234215 7.934367
        CHANNELS 3 Zrotation Xrotation Yrotation
        JOINT FootRight
        {
          OFFSET -8.604877 -3.458540 -10.781274
          CHANNELS 3 Zrotation Xrotation Yrotation
          End Site
          {
            OFFSET 0 0 0
          }
        }
      }
    }
  }
}
MOTION
Frames: 6
Frame Time: 0.033333
34.151525 75.484657 306.888812 0.695925 -0.332456 36.846187 -0.357579 0.683357 -36.842035 -0.000000 0.000000 0.000000 -8.458643 -2.304186 0.141135 0.000000 0.000000 0.000000 3.063630 -43.907847 11.294774 -0.856555 46.093894 -6.540708 8.079321 4.278516 -0.852949 -9.821057 10.076090 6.573635 0.000000 0.000000 0.000000 0.000000 0.000000 0.000000 3.280503 -2.200652 -1.370991 -46.650827 31.827948 -38.054785 30.615842 -17.265538 -27.709590 -13.374319 12.444987 36.436715 0.000000 0.000000 0.000000 0.000000 0.000000 0.000000 1.744748 1.271517 -36.317609 -0.684672 -2.380518 -0.735081 8.338981 -6.174434 -11.836775 0.000000 0.000000 0.000000 -0.357579 0.683357 -36.842035 -0.000000 0.000000 0.000000 5.675663 -6.309546 -2.383131 0.000000 0.000000 0.000000
34.232004 75.600399 306.950563 0.789613 -0.341768 37.792165 -0.414589 0.753931 -37.787082 -0.000000 0.000000 0.000000 -8.818931 -2.531673 0.066862 0.000000 0.000000 0.000000 2.637971 -35.952426 8.136775 -6.804879 29.569939 -3.306933 7.948036 6.001208 -0.277416 -10.179819 14.098364 6.235420 0.000000 0.000000 0.000000 0.000000 0.000000 0.000000 1.649081 -2.570073 -1.020824 -52.319559 34.647788 -37.783111 39.768854 -11.158935 -24.204090 -6.201099 17.802323 38.816520 0.000000 0.000000 0.000000 0.000000 0.000000 0.000000 1.657556 1.089920 -37.242903 -1.446841 -1.520753 -0.596728 2.409166 0.363331 -4.751261 0.000000 0.000000 0.000000 -0.414589 0.753931 -37.787082 -0.000000 0.000000 0.000000 2.684829 -1.525346 -5.039943 0.000000 0.000000 0.000000
34.253728 75.581293 307.080289 0.892096 -0.501248 37.466331 0.056045 -0.065924 -37.432413 0.149098 -0.400705 0.049041 -10.212673 -1.368868 0.323404 0.000000 0.000000 0.000000 1.365902 -33.371690 7.422993 -5.769582 27.874794 -3.773108 7.857312 4.994226 -0.244520 -9.827337 13.788015 5.723691 0.000000 0.000000 0.000000 0.000000 0.000000 0.000000 -2.119994 -1.818165 -0.418957 -56.124758 36.183668 -36.611612 47.870413 -4.260489 -22.231349 -9.735732 11.151309 35.390288 0.000000 0.000000 0.000000 0.000000 0.000000 0.000000 1.815505 0.985264 -36.833974 -1.749497 -1.365006 -0.683278 -0.348520 2.299094 -1.313174 0.000000 0.000000 0.000000 -0.403229 0.940471 -37.459120 -0.000000 0.000000 0.000000 1.170936 0.684657 -5.393435 0.000000 0.000000 0.000000
34.266399 75.505811 307.260355 1.023560 -0.868072 36.017132 0.248829 -0.392878 -35.966310 0.244674 -0.639085 0.075324 -11.007630 0.186862 0.918846 0.000000 0.000000 0.000000 0.302111 -36.752698 9.134031 2.591095 37.618169 -8.885397 9.565748 4.707433 -0.676065 -15.336295 9.555573 5.602738 0.000000 0.000000 0.000000 0.000000 0.000000 0.000000 -4.968264 -0.943674 0.270921 -57.300690 35.342457 -34.916911 46.811549 -7.631411 -17.595066 -8.075574 17.500038 29.267913 0.000000 0.000000 0.000000 0.000000 0.000000 0.000000 1.835291 0.791864 -35.326143 -2.052688 -0.826021 -0.733796 -7.315819 6.154996 7.198047 0.000000 0.000000 0.000000 0.774053 1.934795 -35.841804 -0.515578 -1.150171 -0.199985 0.692765 0.854336 -4.253527 0.000000 0.000000 0.000000
34.279355 75.481352 307.465167 1.225384 -1.356893 35.747297 0.376420 -0.613403 -35.679780 0.299129 -0.764110 0.096280 -11.287309 1.611072 1.384306 0.000000 0.000000 0.000000 -0.251638 -34.746113 8.618988 10.116646 47.888669 -12.028387 12.684163 -3.003783 -0.306328 -19.043804 9.849101 7.192976 0.000000 0.000000 0.000000 0.000000 0.000000 0.000000 -9.392070 0.501293 1.740846 -54.539030 33.548172 -34.165301 32.883747 -21.899341 -21.394145 -1.127068 34.166676 34.573453 0.000000 0.000000 0.000000 0.000000 0.000000 0.000000 1.875017 1.133645 -35.065813 -2.513445 0.448754 -0.327306 -9.567594 5.815370 10.321938 0.000000 0.000000 0.000000 1.731115 2.890198 -35.471500 -0.952179 -1.994061 -0.354055 0.919713 0.304590 -3.668969 0.000000 0.000000 0.000000
34.169141 75.814324 307.971495 1.403511 -2.163936 36.320742 1.138302 -0.948831 -36.225409 0.495529 -0.829557 0.153190 -11.899458 3.933514 2.233001 0.000000 0.000000 0.000000 3.727523 -29.286939 3.909894 -7.774674 61.535116 5.486803 14.320887 -9.640956 0.046515 -4.350482 9.823924 12.661945 0.000000 0.000000 0.000000 0.000000 0.000000 0.000000 -17.102816 2.515327 4.458347 -44.311703 30.994611 -35.741785 9.206175 -43.741653 -23.646164 -8.348869 40.579567 40.205049 0.000000 0.000000 0.000000 0.000000 0.000000 0.000000 2.667284 1.742501 -35.523593 -3.509601 1.072539 -0.237022 -9.771331 4.315742 11.771528 0.000000 0.000000 0.000000 3.470836 4.075636 -35.957791 -2.590788 -2.745884 -0.690153 1.945493 -1.187043 -1.651671 0.000000 0.000000 0.000000
